HIERARCHY
ROOT pelvis
{
  OFFSET 0 100 0
  CHANNELS 6 Xposition Yposition Zposition Zrotation Xrotation Yrotation
  JOINT pelvis_right_femur
  {
    OFFSET -10.78128 -3.44521 -0.5502486
    CHANNELS 3 Zrotation Xrotation Yrotation
    JOINT right_femur_tibia
    {
      OFFSET -0.8047443 -44.0398 -0.1307829
      CHANNELS 3 Zrotation Xrotation Yrotation
      JOINT right_tibia_foot
      {
        OFFSET 3.006224 -47.83518 -5
        CHANNELS 3 Zrotation Xrotation Yrotation
        End Site
        {
          OFFSET 0 -5 15
        }
      }
    }
  }
  JOINT pelvis_left_femur
  {
    OFFSET 10.78128 -3.44521 -0.5502486
    CHANNELS 3 Zrotation Xrotation Yrotation
    JOINT left_femur_tibia
    {
      OFFSET 0.8047443 -44.0398 -0.1307829
      CHANNELS 3 Zrotation Xrotation Yrotation
      JOINT left_tibia_foot
      {
        OFFSET -4.370144 -48.10324 -4.275266
        CHANNELS 3 Zrotation Xrotation Yrotation
        End Site
        {
          OFFSET 0 -5 15
        }
      }
    }
  }
  JOINT pelvis_spine1
  {
    OFFSET 0 6.468898 -3.129235
    CHANNELS 3 Zrotation Xrotation Yrotation
    JOINT spine1
    {
      OFFSET 0 23.15396 4.99043
      CHANNELS 3 Zrotation Xrotation Yrotation
      JOINT spine2
      {
        OFFSET 0 20.79997 -5.064912
        CHANNELS 3 Zrotation Xrotation Yrotation
        JOINT neck
        {
          OFFSET 0 14.38658 9.616178
          CHANNELS 3 Zrotation Xrotation Yrotation
          End Site
          {
            OFFSET 0 20 0
          }
        }
      }
      JOINT right_manubrium
      {
        OFFSET -5.722621 16.35077 3.967754
        CHANNELS 3 Zrotation Xrotation Yrotation
        JOINT right_clavicle
        {
          OFFSET -13.16364 1.694482 -4.693211
          CHANNELS 3 Zrotation Xrotation Yrotation
          JOINT right_humerus
          {
            OFFSET -28.5034 -0.3100689 -2.792744
            CHANNELS 3 Zrotation Xrotation Yrotation
            JOINT right_radius
            {
              OFFSET -25.15693 0.02248979 -1.271978
              CHANNELS 3 Zrotation Xrotation Yrotation
              End Site
              {
                OFFSET -15 0 0
              }
            }
          }
        }
      }
      JOINT left_manubrium
      {
        OFFSET 5.722621 16.35077 3.967754
        CHANNELS 3 Zrotation Xrotation Yrotation
        JOINT left_clavicle
        {
          OFFSET 13.16364 1.694482 -4.693211
          CHANNELS 3 Zrotation Xrotation Yrotation
          JOINT left_humerus
          {
            OFFSET 29.39168 -1.063119 -2.237045
            CHANNELS 3 Zrotation Xrotation Yrotation
            JOINT left_radius
            {
              OFFSET 24.59957 -0.9528479 0.9047498
              CHANNELS 3 Zrotation Xrotation Yrotation
              End Site
              {
                OFFSET 15 -0 -0
              }
            }
          }
        }
      }
    }
  }
}
MOTION
Frames: 19
Frame Time: 0.0416666666667
1443.896 100.4963 2698.931 4.833018 -2.508119 45.22288 0.4682423 18.14008 5.381427 -0 28.46779 -0 5.368059 -10.62094 -1.38459 -1.00644 -25.06652 -4.679505 -0 20.69555 -0 -5.953661 -7.527642 17.5556 -2.277741 -0.6405402 9.149494 -1.084561 9.795131 -3.099088 2.122568 20.99825 5.785914 2.303194 -17.2215 7.302164 2.38087 -21.66918 11.15624 78.37001 25.26488 -4.170635 -0 0 25.56379 -27.55687 14.35034 15.50741 3.596092 -14.92445 -2.779724 -92.48615 22.59141 26.05195 0 0 -11.88125 -2.908473 6.150687 17.73295
1449.947 100.7875 2703.003 5.744082 -2.60906 45.46181 -0.4577674 16.57126 5.370639 -0 36.5937 -0 5.646388 -7.272213 -2.513064 -2.805202 -21.48288 -6.081213 -0 22.1484 -0 -5.672375 -8.424326 17.30477 -3.001149 -0.753409 8.766365 -1.238249 9.733636 -3.159598 2.198334 21.39453 5.892617 2.246367 -16.93455 7.587924 2.569937 -20.76017 10.95986 79.72898 25.54123 -5.405 -0 0 23.82918 -27.25217 14.3631 15.01303 3.292634 -14.77638 -2.952172 -91.98269 23.23587 25.28125 0 0 -11.31825 -3.099802 6.469288 18.03869
1455.83 101.5997 2706.95 6.557593 -2.879867 46.07737 -1.001475 13.41703 5.220779 -0 44.76019 -0 5.495548 -4.03146 -3.83789 -4.256529 -17.05491 -7.277649 -0 23.08146 -0 -5.373937 -9.608618 17.10953 -3.507338 -0.61703 8.019432 -1.322108 9.695638 -3.393592 2.204366 21.8721 6.062954 2.165197 -16.64792 7.903737 2.823089 -19.71842 10.7895 81.26976 26.06713 -6.924344 -0 0 21.7153 -26.66878 14.42121 14.40192 3.095504 -14.86418 -3.152331 -91.22064 23.9237 23.91971 0 0 -11.06704 -3.051981 6.999006 18.07754
1461.413 102.7731 2710.674 7.110303 -3.250066 47.02188 -1.109464 8.730577 4.971711 -0 51.72945 -0 5.043441 -1.355609 -5.212278 -5.206994 -12.09196 -8.135463 -0 22.97568 -0 -5.032108 -10.99917 16.90936 -3.709085 -0.2784291 6.981515 -1.283743 9.722736 -3.850944 2.132922 22.2947 6.277242 2.045532 -16.42576 8.217466 3.085723 -18.69303 10.6618 82.86202 26.67561 -8.650022 -0 0 19.53836 -25.91713 14.54949 13.80753 3.046531 -15.20822 -3.387157 -90.21389 24.46996 22.03676 0 0 -11.26383 -2.749118 7.571008 17.80962
1466.625 104.0601 2714.126 7.286171 -3.61364 48.1928 -0.8263525 2.687136 4.662162 -0 56.0868 -0 4.371904 0.3776933 -6.50976 -5.635498 -6.872272 -8.605845 -0 21.61803 -0 -4.605224 -12.52606 16.60326 -3.605961 0.172849 5.76662 -1.067803 9.840556 -4.57144 1.98657 22.54229 6.503458 1.892526 -16.31849 8.48007 3.303799 -17.78085 10.58168 84.39798 27.26965 -10.56321 -0 0 17.50251 -25.10605 14.77372 13.33222 3.190049 -15.84983 -3.655683 -88.94269 24.69227 19.65058 0 0 -12.10357 -2.171849 8.02536 17.16864
1471.468 105.1606 2717.327 7.018177 -3.821189 49.44581 -0.2976887 -4.29971 4.288071 -0 56.326 -0 3.494816 0.9484933 -7.590731 -5.628347 -1.699308 -8.693494 -0 19.11578 -0 -4.044934 -14.12096 16.08188 -3.301613 0.6073069 4.539523 -0.6314116 10.04972 -5.562402 1.775618 22.52258 6.702327 1.750754 -16.35616 8.613872 3.43838 -17.03001 10.54281 85.7794 27.85269 -12.67728 -0 0 15.70146 -24.34229 15.09451 13.03735 3.573119 -16.84573 -3.944901 -87.39514 24.42052 16.78247 0 0 -13.79908 -1.309813 8.230178 16.0778
1476.03 105.7821 2720.377 6.359441 -3.719819 50.63127 0.2205382 -11.44254 3.776963 -0 51.45772 -0 2.455204 0.4025691 -8.33169 -5.381147 3.08953 -8.478301 -0 16.01042 -0 -3.38222 -15.71627 15.28625 -2.994298 0.8855032 3.509813 0.005635638 10.29301 -6.730529 1.535912 22.22496 6.836911 1.69163 -16.51054 8.55563 3.461642 -16.42436 10.52002 86.94902 28.46089 -14.98115 -0 0 14.12981 -23.72701 15.4884 12.90411 4.21934 -18.19141 -4.228851 -85.65068 23.61256 13.55769 0 0 -16.44691 -0.2417142 8.143631 14.56542
1480.465 105.7309 2723.427 5.556965 -3.253389 51.65236 0.4274652 -17.67955 3.018433 -0 42.10583 -0 1.463951 -0.8701475 -8.71733 -5.158777 7.230712 -8.148843 -0 13.24463 -0 -2.843986 -17.25087 14.26599 -2.886807 0.9271326 2.853139 0.7033675 10.42136 -7.823818 1.345809 21.78863 6.890152 1.756751 -16.66291 8.344246 3.342453 -15.85999 10.46074 87.93923 29.02962 -17.35713 -0 0 12.70183 -23.30381 15.91684 12.78292 5.083827 -19.7082 -4.465935 -83.91442 22.5229 10.25866 0 0 -19.82626 0.8083069 7.905018 12.89124
1484.942 104.9955 2726.623 4.95392 -2.554067 52.50236 0.1983012 -22.20323 2.014337 -0 30.95593 -0 0.847576 -2.222651 -8.887502 -5.148105 10.70021 -7.941857 -0 11.74732 -0 -2.799531 -18.64242 13.18181 -3.032366 0.7707411 2.578083 1.240251 10.25356 -8.524283 1.300186 21.4603 6.870776 1.907637 -16.65616 8.137482 3.068278 -15.17614 10.30747 88.84645 29.36479 -19.55776 -0 0 11.30108 -22.97544 16.31582 12.42586 6.032875 -21.05356 -4.605576 -82.40753 21.638 7.219204 0 0 -23.32908 1.599344 7.804512 11.4497
1489.6 103.755 2730.077 4.719824 -1.889692 53.23673 -0.2225127 -24.95628 1.02103 -0 21.27671 -0 0.7415203 -3.080224 -9.040923 -5.307886 13.69026 -7.97666 -0 11.95752 -0 -3.448504 -19.72205 12.23515 -3.282056 0.5360775 2.503876 1.487762 9.748657 -8.698263 1.440395 21.40051 6.784497 2.059736 -16.43109 8.063915 2.709363 -14.27846 10.0597 89.71558 29.33138 -21.33485 -0 0 9.862547 -22.51956 16.57783 11.66121 6.882409 -21.94342 -4.622467 -81.23558 21.2857 4.6656 0 0 -26.23227 2.079772 8.039975 10.47521
1494.514 102.3046 2733.851 4.744494 -1.493649 53.90272 -0.372284 -26.4029 0.4301087 -0 14.89972 -0 0.9355231 -3.260293 -9.289679 -5.418545 16.34288 -8.195014 -0 13.87302 -0 -4.629075 -20.23292 11.5848 -3.414721 0.3165556 2.417388 1.513473 9.081191 -8.49853 1.721931 21.56915 6.608292 2.158809 -16.09092 8.090024 2.416962 -13.23705 9.796587 90.48484 29.00219 -22.59357 -0 0 8.423839 -21.74056 16.57764 10.53939 7.457181 -22.32709 -4.545357 -80.41357 21.44145 2.721436 0 0 -28.08042 2.341087 8.550797 9.974753
1499.689 100.9675 2737.961 4.800063 -1.478165 54.48962 0.1269439 -26.92668 0.5410842 -0 11.98194 -0 1.096796 -2.971053 -9.616115 -5.263167 18.54216 -8.472363 -0 17.44657 -0 -5.998702 -19.90615 11.30739 -3.264601 0.1349565 2.219293 1.478387 8.51494 -8.187258 2.058183 21.81585 6.315741 2.191852 -15.82521 8.095317 2.332284 -12.24392 9.62229 91.0386 28.5651 -23.36363 -0 0 7.117533 -20.60512 16.26929 9.295099 7.62783 -22.30029 -4.425888 -79.97071 21.9256 1.523828 0 0 -28.74801 2.437029 9.130065 9.905331
1505.076 100.0397 2742.377 4.71682 -1.856292 54.92268 1.414113 -26.5143 1.45617 -0 11.85808 -0 1.022351 -2.598811 -9.903106 -4.745338 19.87664 -8.692599 -0 22.82187 -0 -7.254099 -18.4987 11.40069 -2.746986 -0.02631184 1.960379 1.504534 8.27618 -7.949486 2.362863 21.99391 5.926818 2.163991 -15.80511 8.001388 2.527581 -11.52705 9.621419 91.25967 28.19613 -23.67932 -0 0 6.149698 -19.29965 15.78237 8.243935 7.33396 -21.96816 -4.299015 -80.00794 22.52908 1.291937 0 0 -28.27881 2.370204 9.563755 10.22495
1510.588 99.74782 2747.007 4.488512 -2.549477 55.08751 3.281562 -24.73391 2.992959 -0 13.48601 -0 0.7130184 -2.537005 -9.963476 -3.949682 19.66343 -8.723103 -0 30.26352 -0 -8.194674 -15.86255 11.79042 -1.891353 -0.1812606 1.841098 1.628365 8.514416 -7.831002 2.55707 22.01635 5.522048 2.10441 -16.10095 7.787811 2.993773 -11.30653 9.856355 91.04479 27.98659 -23.52713 -0 0 5.777052 -18.20312 15.37407 7.690782 6.607377 -21.42949 -4.193317 -80.67492 22.99566 2.291901 0 0 -26.83188 2.147457 9.663461 10.8436
1516.117 100.182 2751.687 4.323451 -3.356391 54.88471 5.107295 -21.00249 4.622477 -0 15.5159 -0 0.3425349 -3.068315 -9.59704 -3.15275 17.09085 -8.413316 -0 39.6951 -0 -8.732951 -12.22407 12.34614 -0.9251581 -0.2920708 2.170172 1.800124 9.249354 -7.735731 2.58929 21.90445 5.199669 2.074241 -16.62688 7.45463 3.617427 -11.7412 10.35091 90.32437 27.87471 -22.85846 -0 0 6.231945 -17.73422 15.22286 7.812841 5.605007 -20.8168 -4.133184 -82.04921 23.11648 4.650971 0 0 -24.77284 1.75754 9.322085 11.65695
1521.532 101.2191 2756.214 4.507743 -3.977683 54.31194 6.139453 -15.28063 5.706185 -0 16.59399 -0 0.09206443 -4.209069 -8.70424 -2.652748 11.70845 -7.723889 -0 49.78518 -0 -8.896163 -8.534382 12.94865 -0.261846 -0.2531021 3.168595 1.906233 10.26711 -7.48112 2.478239 21.79989 5.023972 2.138978 -17.1908 7.042928 4.172545 -12.82197 11.02952 89.12555 27.71205 -21.64957 -0 0 7.550188 -18.08735 15.26218 8.532764 4.629183 -20.30377 -4.073029 -83.96904 22.95726 8.072182 0 0 -22.71548 1.172317 8.67241 12.59552
1526.703 102.5244 2760.441 5.087502 -4.217173 53.50289 6.11792 -8.650844 6.005107 -0 16.20677 -0 -0.08846266 -5.730501 -7.428911 -2.444306 4.227116 -6.856244 -0 57.54965 -0 -8.803949 -6.130648 13.59588 -0.2001414 0.02114382 4.643252 1.824305 11.11562 -6.936444 2.324804 21.87182 5.003013 2.302485 -17.60155 6.691535 4.41928 -14.26257 11.66969 87.61381 27.52605 -19.92829 -0 0 9.434789 -19.04384 15.29878 9.491578 4.017423 -19.98688 -3.882877 -85.98033 22.86047 11.69914 0 0 -21.19523 0.4975249 8.141358 13.49712
1531.582 103.7005 2764.352 5.831543 -4.210819 52.63712 5.451793 -2.577071 5.824732 -0 15.17146 -0 -0.3230416 -7.516162 -6.154894 -2.187497 -3.541428 -6.054183 -0 60.21058 -0 -8.603052 -5.518269 14.4619 -0.5868068 0.4860172 6.021142 1.497248 11.42466 -6.130029 2.248157 22.16543 5.069842 2.471685 -17.66195 6.550832 4.288841 -15.63244 12.02854 85.9567 27.49045 -17.67577 -0 0 11.5124 -20.19367 15.2791 10.3083 3.883834 -19.72024 -3.528189 -87.58356 23.00888 14.54946 0 0 -20.14052 -0.02393842 8.069895 14.05704
1536.236 104.4604 2768.016 6.430345 -4.223947 51.81759 4.715801 2.35803 5.573718 -0 14.49413 -0 -0.4712502 -9.617939 -5.119724 -1.562494 -10.30749 -5.321436 -0 57.29172 -0 -8.383438 -6.036864 15.65767 -0.9823815 0.9943778 6.924698 0.9788296 11.22663 -5.218754 2.266904 22.52724 5.152794 2.548985 -17.33419 6.624045 3.905902 -16.79953 12.07631 84.17129 27.55663 -14.86733 -0 0 13.79466 -21.36893 15.27172 10.95805 4.060426 -19.27435 -3.142501 -88.68008 23.25717 16.44964 0 0 -19.11523 -0.3406147 8.334714 14.2528
